<?xml version="1.0" encoding="utf-8"?>
<!-- Generator: Adobe Illustrator 26.0.0, SVG Export Plug-In . SVG Version: 6.00 Build 0)  -->
<svg version="1.1" id="Layer_1" xmlns="http://www.w3.org/2000/svg" xmlns:xlink="http://www.w3.org/1999/xlink" x="0px" y="0px"
	 viewBox="0 0 473.53 602.83" style="enable-background:new 0 0 473.53 602.83;" xml:space="preserve">
<style type="text/css">
	.st0{opacity:0.5;fill:none;stroke:#2D2E40;enable-background:new    ;}
	.st1{opacity:0.25;fill:none;stroke:#2D2E40;enable-background:new    ;}
	.st2{opacity:0.08;fill:#2D2E40;enable-background:new    ;}
	.st3{fill:#535353;}
	.st4{fill:#1D1D25;}
	.st5{fill:url(#SVGID_1_);}
	.st6{fill:#FFFFFF;filter:url(#Adobe_OpacityMaskFilter);}
	.st7{mask:url(#mask0_0_1_00000044894391865439576640000009896317769634231965_);}
	.st8{fill:#F9F6F6;}
	.st9{fill:#FFFFFF;}
	.st10{fill:#E7E7E7;}
	.st11{opacity:0.098;fill:#4A5166;enable-background:new    ;}
	.st12{fill:#52526F;}
	.st13{fill:#FFFFFF;filter:url(#Adobe_OpacityMaskFilter_00000146487469021979018920000000518989126690746251_);}
	.st14{mask:url(#mask1_0_1_00000088832587031397433790000009322220933581468835_);}
	.st15{fill:#2F2F47;}
	.st16{fill:#393A56;}
</style>
<path class="st0" d="M92.5,557.1L92.5,557.1c140.79,0,254.92-114.13,254.92-254.92v-1.53c0-140.79-114.13-254.92-254.92-254.92l0,0
	c-140.79,0-254.92,114.13-254.92,254.92v1.53C-162.42,442.97-48.29,557.1,92.5,557.1z"/>
<path class="st1" d="M92.5,602.33L92.5,602.33c165.77,0,300.15-134.38,300.15-300.15v-1.53C392.65,134.88,258.27,0.5,92.5,0.5l0,0
	c-165.77,0-300.15,134.38-300.15,300.15v1.53C-207.65,467.95-73.27,602.33,92.5,602.33z"/>
<path class="st2" d="M92.5,513.02L92.5,513.02c116.44,0,210.83-94.39,210.83-210.83v-1.53c0-116.44-94.39-210.83-210.83-210.83l0,0
	c-116.44,0-210.83,94.39-210.83,210.83v1.53C-118.33,418.62-23.94,513.02,92.5,513.02z"/>
<g>
	<path class="st3" d="M9.7,159.58h394.07c5.08,0,9.2,4.12,9.2,9.2v263.73c0,5.08-4.12,9.2-9.2,9.2H9.7c-5.08,0-9.2-4.12-9.2-9.2
		V168.78C0.5,163.7,4.62,159.58,9.7,159.58z"/>
	<path class="st4" d="M10.47,161.88H403c4.23,0,7.67,3.43,7.67,7.67v262.2c0,4.23-3.43,7.67-7.67,7.67H10.47
		c-4.23,0-7.67-3.43-7.67-7.67v-262.2C2.8,165.32,6.23,161.88,10.47,161.88z"/>
	
		<linearGradient id="SVGID_1_" gradientUnits="userSpaceOnUse" x1="-173.1481" y1="598.6452" x2="64.1479" y2="241.1531" gradientTransform="matrix(1 0 0 -1 262 720.5)">
		<stop  offset="0" style="stop-color:#FF8F71"/>
		<stop  offset="1" style="stop-color:#FF3E55"/>
	</linearGradient>
	<path class="st5" d="M15.83,171.85h383.33c1.27,0,2.3,1.03,2.3,2.3v252.9c0,1.27-1.03,2.3-2.3,2.3H15.83c-1.27,0-2.3-1.03-2.3-2.3
		v-252.9C13.53,172.88,14.56,171.85,15.83,171.85z"/>
	<defs>
		<filter id="Adobe_OpacityMaskFilter" filterUnits="userSpaceOnUse" x="13.28" y="200.57" width="387.93" height="228.98">
			<feColorMatrix  type="matrix" values="1 0 0 0 0  0 1 0 0 0  0 0 1 0 0  0 0 0 1 0"/>
		</filter>
	</defs>
	
		<mask maskUnits="userSpaceOnUse" x="13.28" y="200.57" width="387.93" height="228.98" id="mask0_0_1_00000044894391865439576640000009896317769634231965_">
		<path class="st6" d="M15.83,171.85h383.33c1.27,0,2.3,1.03,2.3,2.3v252.9c0,1.27-1.03,2.3-2.3,2.3H15.83c-1.27,0-2.3-1.03-2.3-2.3
			v-252.9C13.53,172.88,14.56,171.85,15.83,171.85z"/>
	</mask>
	<g class="st7">
		<path class="st8" d="M15.58,218.07h383.33c1.27,0,2.3,1.03,2.3,2.3v206.88c0,1.27-1.03,2.3-2.3,2.3H15.58
			c-1.27,0-2.3-1.03-2.3-2.3V220.37C13.28,219.1,14.31,218.07,15.58,218.07z"/>
		<path class="st9" d="M70.63,200.57h77.16c1.27,0,2.3,1.03,2.3,2.3v192.08c0,1.27-1.03,2.3-2.3,2.3H70.63c-1.27,0-2.3-1.03-2.3-2.3
			V202.87C68.33,201.6,69.36,200.57,70.63,200.57z"/>
		<path class="st9" d="M166.31,200.57h178.06c1.27,0,2.3,1.03,2.3,2.3v192.08c0,1.27-1.03,2.3-2.3,2.3H166.31
			c-1.27,0-2.3-1.03-2.3-2.3V202.87C164.01,201.6,165.04,200.57,166.31,200.57z"/>
		<path class="st10" d="M174.14,211.01h162.4c1.27,0,2.3,1.03,2.3,2.3v41.52c0,1.27-1.03,2.3-2.3,2.3h-162.4
			c-1.27,0-2.3-1.03-2.3-2.3v-41.52C171.84,212.04,172.87,211.01,174.14,211.01z"/>
		<path class="st10" d="M174.14,266.71h44.98c1.27,0,2.3,1.03,2.3,2.3v41.52c0,1.27-1.03,2.3-2.3,2.3h-44.98
			c-1.27,0-2.3-1.03-2.3-2.3v-41.52C171.84,267.74,172.87,266.71,174.14,266.71z"/>
		<path class="st10" d="M235.89,266.71h100.65c1.27,0,2.3,1.03,2.3,2.3v41.52c0,1.27-1.03,2.3-2.3,2.3H235.89
			c-1.27,0-2.3-1.03-2.3-2.3v-41.52C233.59,267.74,234.62,266.71,235.89,266.71z"/>
	</g>
	<path class="st11" d="M206.35,147.32h8.13c0.64,0,1.15,0.51,1.15,1.15l0,0c0,0.64-0.51,1.15-1.15,1.15h-8.13
		c-0.64,0-1.15-0.51-1.15-1.15l0,0C205.2,147.83,205.71,147.32,206.35,147.32z"/>
	<path class="st11" d="M219.23,147.32h0.15c0.64,0,1.15,0.51,1.15,1.15l0,0c0,0.64-0.51,1.15-1.15,1.15h-0.15
		c-0.64,0-1.15-0.51-1.15-1.15l0,0C218.08,147.83,218.59,147.32,219.23,147.32z"/>
	<path class="st12" d="M-62.37,440.95c0-1.27,1.03-2.3,2.3-2.3h531.22c1.27,0,2.3,1.03,2.3,2.3v10.81H-62.37V440.95z"/>
	<defs>
		
			<filter id="Adobe_OpacityMaskFilter_00000026142909472139568800000009772663720624976543_" filterUnits="userSpaceOnUse" x="161.78" y="406.52" width="87.52" height="40">
			<feColorMatrix  type="matrix" values="1 0 0 0 0  0 1 0 0 0  0 0 1 0 0  0 0 0 1 0"/>
		</filter>
	</defs>
	
		<mask maskUnits="userSpaceOnUse" x="161.78" y="406.52" width="87.52" height="40" id="mask1_0_1_00000088832587031397433790000009322220933581468835_">
		<path style="fill:#FFFFFF;filter:url(#Adobe_OpacityMaskFilter_00000026142909472139568800000009772663720624976543_);" d="
			M-62.37,440.95c0-1.27,1.03-2.3,2.3-2.3h531.22c1.27,0,2.3,1.03,2.3,2.3v10.81H-62.37V440.95z"/>
	</mask>
	<g class="st14">
		<path class="st15" d="M169.45,406.52h72.19c4.23,0,7.67,3.43,7.67,7.67v24.66c0,4.23-3.43,7.67-7.67,7.67h-72.19
			c-4.23,0-7.67-3.43-7.67-7.67v-24.66C161.78,409.95,165.22,406.52,169.45,406.52z"/>
	</g>
	<path class="st16" d="M-62.37,451.68h535.9c0,2.54-2.06,4.6-4.6,4.6h-526.7C-60.31,456.28-62.37,454.22-62.37,451.68z"/>
</g>
</svg>
